%TF.GenerationSoftware,KiCad,Pcbnew,(7.0.0)*%
%TF.CreationDate,2023-05-09T23:11:13-07:00*%
%TF.ProjectId,CPE_301_KiCAD_Final,4350455f-3330-4315-9f4b-694341445f46,rev?*%
%TF.SameCoordinates,Original*%
%TF.FileFunction,Legend,Top*%
%TF.FilePolarity,Positive*%
%FSLAX46Y46*%
G04 Gerber Fmt 4.6, Leading zero omitted, Abs format (unit mm)*
G04 Created by KiCad (PCBNEW (7.0.0)) date 2023-05-09 23:11:13*
%MOMM*%
%LPD*%
G01*
G04 APERTURE LIST*
%ADD10C,0.150000*%
%ADD11C,0.120000*%
%ADD12C,0.152400*%
%ADD13C,0.127000*%
%ADD14C,0.100000*%
G04 APERTURE END LIST*
D10*
%TO.C,U2*%
X121211371Y-73075608D02*
X122020920Y-73075608D01*
X122020920Y-73075608D02*
X122116161Y-73027987D01*
X122116161Y-73027987D02*
X122163781Y-72980367D01*
X122163781Y-72980367D02*
X122211402Y-72885126D01*
X122211402Y-72885126D02*
X122211402Y-72694644D01*
X122211402Y-72694644D02*
X122163781Y-72599403D01*
X122163781Y-72599403D02*
X122116161Y-72551782D01*
X122116161Y-72551782D02*
X122020920Y-72504162D01*
X122020920Y-72504162D02*
X121211371Y-72504162D01*
X121306612Y-72075576D02*
X121258992Y-72027956D01*
X121258992Y-72027956D02*
X121211371Y-71932715D01*
X121211371Y-71932715D02*
X121211371Y-71694612D01*
X121211371Y-71694612D02*
X121258992Y-71599371D01*
X121258992Y-71599371D02*
X121306612Y-71551751D01*
X121306612Y-71551751D02*
X121401853Y-71504130D01*
X121401853Y-71504130D02*
X121497094Y-71504130D01*
X121497094Y-71504130D02*
X121639956Y-71551751D01*
X121639956Y-71551751D02*
X122211402Y-72123197D01*
X122211402Y-72123197D02*
X122211402Y-71504130D01*
%TO.C,J8*%
X159003680Y-81499533D02*
X159717966Y-81499533D01*
X159717966Y-81499533D02*
X159860823Y-81547152D01*
X159860823Y-81547152D02*
X159956061Y-81642390D01*
X159956061Y-81642390D02*
X160003680Y-81785247D01*
X160003680Y-81785247D02*
X160003680Y-81880485D01*
X159432252Y-80880485D02*
X159384633Y-80975723D01*
X159384633Y-80975723D02*
X159337014Y-81023342D01*
X159337014Y-81023342D02*
X159241776Y-81070961D01*
X159241776Y-81070961D02*
X159194157Y-81070961D01*
X159194157Y-81070961D02*
X159098919Y-81023342D01*
X159098919Y-81023342D02*
X159051300Y-80975723D01*
X159051300Y-80975723D02*
X159003680Y-80880485D01*
X159003680Y-80880485D02*
X159003680Y-80690009D01*
X159003680Y-80690009D02*
X159051300Y-80594771D01*
X159051300Y-80594771D02*
X159098919Y-80547152D01*
X159098919Y-80547152D02*
X159194157Y-80499533D01*
X159194157Y-80499533D02*
X159241776Y-80499533D01*
X159241776Y-80499533D02*
X159337014Y-80547152D01*
X159337014Y-80547152D02*
X159384633Y-80594771D01*
X159384633Y-80594771D02*
X159432252Y-80690009D01*
X159432252Y-80690009D02*
X159432252Y-80880485D01*
X159432252Y-80880485D02*
X159479871Y-80975723D01*
X159479871Y-80975723D02*
X159527490Y-81023342D01*
X159527490Y-81023342D02*
X159622728Y-81070961D01*
X159622728Y-81070961D02*
X159813204Y-81070961D01*
X159813204Y-81070961D02*
X159908442Y-81023342D01*
X159908442Y-81023342D02*
X159956061Y-80975723D01*
X159956061Y-80975723D02*
X160003680Y-80880485D01*
X160003680Y-80880485D02*
X160003680Y-80690009D01*
X160003680Y-80690009D02*
X159956061Y-80594771D01*
X159956061Y-80594771D02*
X159908442Y-80547152D01*
X159908442Y-80547152D02*
X159813204Y-80499533D01*
X159813204Y-80499533D02*
X159622728Y-80499533D01*
X159622728Y-80499533D02*
X159527490Y-80547152D01*
X159527490Y-80547152D02*
X159479871Y-80594771D01*
X159479871Y-80594771D02*
X159432252Y-80690009D01*
%TO.C,LED1*%
X119488680Y-71080247D02*
X119488680Y-71556437D01*
X119488680Y-71556437D02*
X118488680Y-71556437D01*
X118964871Y-70746913D02*
X118964871Y-70413580D01*
X119488680Y-70270723D02*
X119488680Y-70746913D01*
X119488680Y-70746913D02*
X118488680Y-70746913D01*
X118488680Y-70746913D02*
X118488680Y-70270723D01*
X119488680Y-69842151D02*
X118488680Y-69842151D01*
X118488680Y-69842151D02*
X118488680Y-69604056D01*
X118488680Y-69604056D02*
X118536300Y-69461199D01*
X118536300Y-69461199D02*
X118631538Y-69365961D01*
X118631538Y-69365961D02*
X118726776Y-69318342D01*
X118726776Y-69318342D02*
X118917252Y-69270723D01*
X118917252Y-69270723D02*
X119060109Y-69270723D01*
X119060109Y-69270723D02*
X119250585Y-69318342D01*
X119250585Y-69318342D02*
X119345823Y-69365961D01*
X119345823Y-69365961D02*
X119441061Y-69461199D01*
X119441061Y-69461199D02*
X119488680Y-69604056D01*
X119488680Y-69604056D02*
X119488680Y-69842151D01*
X119488680Y-68318342D02*
X119488680Y-68889770D01*
X119488680Y-68604056D02*
X118488680Y-68604056D01*
X118488680Y-68604056D02*
X118631538Y-68699294D01*
X118631538Y-68699294D02*
X118726776Y-68794532D01*
X118726776Y-68794532D02*
X118774395Y-68889770D01*
%TO.C,U5*%
X98732380Y-84886904D02*
X99541904Y-84886904D01*
X99541904Y-84886904D02*
X99637142Y-84839285D01*
X99637142Y-84839285D02*
X99684761Y-84791666D01*
X99684761Y-84791666D02*
X99732380Y-84696428D01*
X99732380Y-84696428D02*
X99732380Y-84505952D01*
X99732380Y-84505952D02*
X99684761Y-84410714D01*
X99684761Y-84410714D02*
X99637142Y-84363095D01*
X99637142Y-84363095D02*
X99541904Y-84315476D01*
X99541904Y-84315476D02*
X98732380Y-84315476D01*
X98732380Y-83363095D02*
X98732380Y-83839285D01*
X98732380Y-83839285D02*
X99208571Y-83886904D01*
X99208571Y-83886904D02*
X99160952Y-83839285D01*
X99160952Y-83839285D02*
X99113333Y-83744047D01*
X99113333Y-83744047D02*
X99113333Y-83505952D01*
X99113333Y-83505952D02*
X99160952Y-83410714D01*
X99160952Y-83410714D02*
X99208571Y-83363095D01*
X99208571Y-83363095D02*
X99303809Y-83315476D01*
X99303809Y-83315476D02*
X99541904Y-83315476D01*
X99541904Y-83315476D02*
X99637142Y-83363095D01*
X99637142Y-83363095D02*
X99684761Y-83410714D01*
X99684761Y-83410714D02*
X99732380Y-83505952D01*
X99732380Y-83505952D02*
X99732380Y-83744047D01*
X99732380Y-83744047D02*
X99684761Y-83839285D01*
X99684761Y-83839285D02*
X99637142Y-83886904D01*
%TO.C,J6*%
X140412380Y-74933333D02*
X141126666Y-74933333D01*
X141126666Y-74933333D02*
X141269523Y-74980952D01*
X141269523Y-74980952D02*
X141364761Y-75076190D01*
X141364761Y-75076190D02*
X141412380Y-75219047D01*
X141412380Y-75219047D02*
X141412380Y-75314285D01*
X140412380Y-74028571D02*
X140412380Y-74219047D01*
X140412380Y-74219047D02*
X140460000Y-74314285D01*
X140460000Y-74314285D02*
X140507619Y-74361904D01*
X140507619Y-74361904D02*
X140650476Y-74457142D01*
X140650476Y-74457142D02*
X140840952Y-74504761D01*
X140840952Y-74504761D02*
X141221904Y-74504761D01*
X141221904Y-74504761D02*
X141317142Y-74457142D01*
X141317142Y-74457142D02*
X141364761Y-74409523D01*
X141364761Y-74409523D02*
X141412380Y-74314285D01*
X141412380Y-74314285D02*
X141412380Y-74123809D01*
X141412380Y-74123809D02*
X141364761Y-74028571D01*
X141364761Y-74028571D02*
X141317142Y-73980952D01*
X141317142Y-73980952D02*
X141221904Y-73933333D01*
X141221904Y-73933333D02*
X140983809Y-73933333D01*
X140983809Y-73933333D02*
X140888571Y-73980952D01*
X140888571Y-73980952D02*
X140840952Y-74028571D01*
X140840952Y-74028571D02*
X140793333Y-74123809D01*
X140793333Y-74123809D02*
X140793333Y-74314285D01*
X140793333Y-74314285D02*
X140840952Y-74409523D01*
X140840952Y-74409523D02*
X140888571Y-74457142D01*
X140888571Y-74457142D02*
X140983809Y-74504761D01*
%TO.C,S2*%
X153949761Y-77461904D02*
X153997380Y-77319047D01*
X153997380Y-77319047D02*
X153997380Y-77080952D01*
X153997380Y-77080952D02*
X153949761Y-76985714D01*
X153949761Y-76985714D02*
X153902142Y-76938095D01*
X153902142Y-76938095D02*
X153806904Y-76890476D01*
X153806904Y-76890476D02*
X153711666Y-76890476D01*
X153711666Y-76890476D02*
X153616428Y-76938095D01*
X153616428Y-76938095D02*
X153568809Y-76985714D01*
X153568809Y-76985714D02*
X153521190Y-77080952D01*
X153521190Y-77080952D02*
X153473571Y-77271428D01*
X153473571Y-77271428D02*
X153425952Y-77366666D01*
X153425952Y-77366666D02*
X153378333Y-77414285D01*
X153378333Y-77414285D02*
X153283095Y-77461904D01*
X153283095Y-77461904D02*
X153187857Y-77461904D01*
X153187857Y-77461904D02*
X153092619Y-77414285D01*
X153092619Y-77414285D02*
X153045000Y-77366666D01*
X153045000Y-77366666D02*
X152997380Y-77271428D01*
X152997380Y-77271428D02*
X152997380Y-77033333D01*
X152997380Y-77033333D02*
X153045000Y-76890476D01*
X153092619Y-76509523D02*
X153045000Y-76461904D01*
X153045000Y-76461904D02*
X152997380Y-76366666D01*
X152997380Y-76366666D02*
X152997380Y-76128571D01*
X152997380Y-76128571D02*
X153045000Y-76033333D01*
X153045000Y-76033333D02*
X153092619Y-75985714D01*
X153092619Y-75985714D02*
X153187857Y-75938095D01*
X153187857Y-75938095D02*
X153283095Y-75938095D01*
X153283095Y-75938095D02*
X153425952Y-75985714D01*
X153425952Y-75985714D02*
X153997380Y-76557142D01*
X153997380Y-76557142D02*
X153997380Y-75938095D01*
%TO.C,R2*%
X162038680Y-74692866D02*
X161562490Y-75026199D01*
X162038680Y-75264294D02*
X161038680Y-75264294D01*
X161038680Y-75264294D02*
X161038680Y-74883342D01*
X161038680Y-74883342D02*
X161086300Y-74788104D01*
X161086300Y-74788104D02*
X161133919Y-74740485D01*
X161133919Y-74740485D02*
X161229157Y-74692866D01*
X161229157Y-74692866D02*
X161372014Y-74692866D01*
X161372014Y-74692866D02*
X161467252Y-74740485D01*
X161467252Y-74740485D02*
X161514871Y-74788104D01*
X161514871Y-74788104D02*
X161562490Y-74883342D01*
X161562490Y-74883342D02*
X161562490Y-75264294D01*
X161133919Y-74311913D02*
X161086300Y-74264294D01*
X161086300Y-74264294D02*
X161038680Y-74169056D01*
X161038680Y-74169056D02*
X161038680Y-73930961D01*
X161038680Y-73930961D02*
X161086300Y-73835723D01*
X161086300Y-73835723D02*
X161133919Y-73788104D01*
X161133919Y-73788104D02*
X161229157Y-73740485D01*
X161229157Y-73740485D02*
X161324395Y-73740485D01*
X161324395Y-73740485D02*
X161467252Y-73788104D01*
X161467252Y-73788104D02*
X162038680Y-74359532D01*
X162038680Y-74359532D02*
X162038680Y-73740485D01*
%TO.C,VR1*%
X110107380Y-63209523D02*
X111107380Y-62876190D01*
X111107380Y-62876190D02*
X110107380Y-62542857D01*
X111107380Y-61638095D02*
X110631190Y-61971428D01*
X111107380Y-62209523D02*
X110107380Y-62209523D01*
X110107380Y-62209523D02*
X110107380Y-61828571D01*
X110107380Y-61828571D02*
X110155000Y-61733333D01*
X110155000Y-61733333D02*
X110202619Y-61685714D01*
X110202619Y-61685714D02*
X110297857Y-61638095D01*
X110297857Y-61638095D02*
X110440714Y-61638095D01*
X110440714Y-61638095D02*
X110535952Y-61685714D01*
X110535952Y-61685714D02*
X110583571Y-61733333D01*
X110583571Y-61733333D02*
X110631190Y-61828571D01*
X110631190Y-61828571D02*
X110631190Y-62209523D01*
X111107380Y-60685714D02*
X111107380Y-61257142D01*
X111107380Y-60971428D02*
X110107380Y-60971428D01*
X110107380Y-60971428D02*
X110250238Y-61066666D01*
X110250238Y-61066666D02*
X110345476Y-61161904D01*
X110345476Y-61161904D02*
X110393095Y-61257142D01*
%TO.C,R1*%
X160288680Y-74692866D02*
X159812490Y-75026199D01*
X160288680Y-75264294D02*
X159288680Y-75264294D01*
X159288680Y-75264294D02*
X159288680Y-74883342D01*
X159288680Y-74883342D02*
X159336300Y-74788104D01*
X159336300Y-74788104D02*
X159383919Y-74740485D01*
X159383919Y-74740485D02*
X159479157Y-74692866D01*
X159479157Y-74692866D02*
X159622014Y-74692866D01*
X159622014Y-74692866D02*
X159717252Y-74740485D01*
X159717252Y-74740485D02*
X159764871Y-74788104D01*
X159764871Y-74788104D02*
X159812490Y-74883342D01*
X159812490Y-74883342D02*
X159812490Y-75264294D01*
X160288680Y-73740485D02*
X160288680Y-74311913D01*
X160288680Y-74026199D02*
X159288680Y-74026199D01*
X159288680Y-74026199D02*
X159431538Y-74121437D01*
X159431538Y-74121437D02*
X159526776Y-74216675D01*
X159526776Y-74216675D02*
X159574395Y-74311913D01*
%TO.C,U1*%
X99197380Y-52501904D02*
X100006904Y-52501904D01*
X100006904Y-52501904D02*
X100102142Y-52454285D01*
X100102142Y-52454285D02*
X100149761Y-52406666D01*
X100149761Y-52406666D02*
X100197380Y-52311428D01*
X100197380Y-52311428D02*
X100197380Y-52120952D01*
X100197380Y-52120952D02*
X100149761Y-52025714D01*
X100149761Y-52025714D02*
X100102142Y-51978095D01*
X100102142Y-51978095D02*
X100006904Y-51930476D01*
X100006904Y-51930476D02*
X99197380Y-51930476D01*
X100197380Y-50930476D02*
X100197380Y-51501904D01*
X100197380Y-51216190D02*
X99197380Y-51216190D01*
X99197380Y-51216190D02*
X99340238Y-51311428D01*
X99340238Y-51311428D02*
X99435476Y-51406666D01*
X99435476Y-51406666D02*
X99483095Y-51501904D01*
%TO.C,S1*%
X148869761Y-77461904D02*
X148917380Y-77319047D01*
X148917380Y-77319047D02*
X148917380Y-77080952D01*
X148917380Y-77080952D02*
X148869761Y-76985714D01*
X148869761Y-76985714D02*
X148822142Y-76938095D01*
X148822142Y-76938095D02*
X148726904Y-76890476D01*
X148726904Y-76890476D02*
X148631666Y-76890476D01*
X148631666Y-76890476D02*
X148536428Y-76938095D01*
X148536428Y-76938095D02*
X148488809Y-76985714D01*
X148488809Y-76985714D02*
X148441190Y-77080952D01*
X148441190Y-77080952D02*
X148393571Y-77271428D01*
X148393571Y-77271428D02*
X148345952Y-77366666D01*
X148345952Y-77366666D02*
X148298333Y-77414285D01*
X148298333Y-77414285D02*
X148203095Y-77461904D01*
X148203095Y-77461904D02*
X148107857Y-77461904D01*
X148107857Y-77461904D02*
X148012619Y-77414285D01*
X148012619Y-77414285D02*
X147965000Y-77366666D01*
X147965000Y-77366666D02*
X147917380Y-77271428D01*
X147917380Y-77271428D02*
X147917380Y-77033333D01*
X147917380Y-77033333D02*
X147965000Y-76890476D01*
X148917380Y-75938095D02*
X148917380Y-76509523D01*
X148917380Y-76223809D02*
X147917380Y-76223809D01*
X147917380Y-76223809D02*
X148060238Y-76319047D01*
X148060238Y-76319047D02*
X148155476Y-76414285D01*
X148155476Y-76414285D02*
X148203095Y-76509523D01*
%TO.C,U6*%
X144323095Y-94922380D02*
X144323095Y-95731904D01*
X144323095Y-95731904D02*
X144370714Y-95827142D01*
X144370714Y-95827142D02*
X144418333Y-95874761D01*
X144418333Y-95874761D02*
X144513571Y-95922380D01*
X144513571Y-95922380D02*
X144704047Y-95922380D01*
X144704047Y-95922380D02*
X144799285Y-95874761D01*
X144799285Y-95874761D02*
X144846904Y-95827142D01*
X144846904Y-95827142D02*
X144894523Y-95731904D01*
X144894523Y-95731904D02*
X144894523Y-94922380D01*
X145799285Y-94922380D02*
X145608809Y-94922380D01*
X145608809Y-94922380D02*
X145513571Y-94970000D01*
X145513571Y-94970000D02*
X145465952Y-95017619D01*
X145465952Y-95017619D02*
X145370714Y-95160476D01*
X145370714Y-95160476D02*
X145323095Y-95350952D01*
X145323095Y-95350952D02*
X145323095Y-95731904D01*
X145323095Y-95731904D02*
X145370714Y-95827142D01*
X145370714Y-95827142D02*
X145418333Y-95874761D01*
X145418333Y-95874761D02*
X145513571Y-95922380D01*
X145513571Y-95922380D02*
X145704047Y-95922380D01*
X145704047Y-95922380D02*
X145799285Y-95874761D01*
X145799285Y-95874761D02*
X145846904Y-95827142D01*
X145846904Y-95827142D02*
X145894523Y-95731904D01*
X145894523Y-95731904D02*
X145894523Y-95493809D01*
X145894523Y-95493809D02*
X145846904Y-95398571D01*
X145846904Y-95398571D02*
X145799285Y-95350952D01*
X145799285Y-95350952D02*
X145704047Y-95303333D01*
X145704047Y-95303333D02*
X145513571Y-95303333D01*
X145513571Y-95303333D02*
X145418333Y-95350952D01*
X145418333Y-95350952D02*
X145370714Y-95398571D01*
X145370714Y-95398571D02*
X145323095Y-95493809D01*
%TO.C,J10*%
X132792380Y-75409523D02*
X133506666Y-75409523D01*
X133506666Y-75409523D02*
X133649523Y-75457142D01*
X133649523Y-75457142D02*
X133744761Y-75552380D01*
X133744761Y-75552380D02*
X133792380Y-75695237D01*
X133792380Y-75695237D02*
X133792380Y-75790475D01*
X133792380Y-74409523D02*
X133792380Y-74980951D01*
X133792380Y-74695237D02*
X132792380Y-74695237D01*
X132792380Y-74695237D02*
X132935238Y-74790475D01*
X132935238Y-74790475D02*
X133030476Y-74885713D01*
X133030476Y-74885713D02*
X133078095Y-74980951D01*
X132792380Y-73790475D02*
X132792380Y-73695237D01*
X132792380Y-73695237D02*
X132840000Y-73599999D01*
X132840000Y-73599999D02*
X132887619Y-73552380D01*
X132887619Y-73552380D02*
X132982857Y-73504761D01*
X132982857Y-73504761D02*
X133173333Y-73457142D01*
X133173333Y-73457142D02*
X133411428Y-73457142D01*
X133411428Y-73457142D02*
X133601904Y-73504761D01*
X133601904Y-73504761D02*
X133697142Y-73552380D01*
X133697142Y-73552380D02*
X133744761Y-73599999D01*
X133744761Y-73599999D02*
X133792380Y-73695237D01*
X133792380Y-73695237D02*
X133792380Y-73790475D01*
X133792380Y-73790475D02*
X133744761Y-73885713D01*
X133744761Y-73885713D02*
X133697142Y-73933332D01*
X133697142Y-73933332D02*
X133601904Y-73980951D01*
X133601904Y-73980951D02*
X133411428Y-74028570D01*
X133411428Y-74028570D02*
X133173333Y-74028570D01*
X133173333Y-74028570D02*
X132982857Y-73980951D01*
X132982857Y-73980951D02*
X132887619Y-73933332D01*
X132887619Y-73933332D02*
X132840000Y-73885713D01*
X132840000Y-73885713D02*
X132792380Y-73790475D01*
%TO.C,J7*%
X159003680Y-90699533D02*
X159717966Y-90699533D01*
X159717966Y-90699533D02*
X159860823Y-90747152D01*
X159860823Y-90747152D02*
X159956061Y-90842390D01*
X159956061Y-90842390D02*
X160003680Y-90985247D01*
X160003680Y-90985247D02*
X160003680Y-91080485D01*
X159003680Y-90318580D02*
X159003680Y-89651914D01*
X159003680Y-89651914D02*
X160003680Y-90080485D01*
%TO.C,J9*%
X159003680Y-86099533D02*
X159717966Y-86099533D01*
X159717966Y-86099533D02*
X159860823Y-86147152D01*
X159860823Y-86147152D02*
X159956061Y-86242390D01*
X159956061Y-86242390D02*
X160003680Y-86385247D01*
X160003680Y-86385247D02*
X160003680Y-86480485D01*
X160003680Y-85575723D02*
X160003680Y-85385247D01*
X160003680Y-85385247D02*
X159956061Y-85290009D01*
X159956061Y-85290009D02*
X159908442Y-85242390D01*
X159908442Y-85242390D02*
X159765585Y-85147152D01*
X159765585Y-85147152D02*
X159575109Y-85099533D01*
X159575109Y-85099533D02*
X159194157Y-85099533D01*
X159194157Y-85099533D02*
X159098919Y-85147152D01*
X159098919Y-85147152D02*
X159051300Y-85194771D01*
X159051300Y-85194771D02*
X159003680Y-85290009D01*
X159003680Y-85290009D02*
X159003680Y-85480485D01*
X159003680Y-85480485D02*
X159051300Y-85575723D01*
X159051300Y-85575723D02*
X159098919Y-85623342D01*
X159098919Y-85623342D02*
X159194157Y-85670961D01*
X159194157Y-85670961D02*
X159432252Y-85670961D01*
X159432252Y-85670961D02*
X159527490Y-85623342D01*
X159527490Y-85623342D02*
X159575109Y-85575723D01*
X159575109Y-85575723D02*
X159622728Y-85480485D01*
X159622728Y-85480485D02*
X159622728Y-85290009D01*
X159622728Y-85290009D02*
X159575109Y-85194771D01*
X159575109Y-85194771D02*
X159527490Y-85147152D01*
X159527490Y-85147152D02*
X159432252Y-85099533D01*
%TO.C,D2*%
X162278680Y-77939294D02*
X161278680Y-77939294D01*
X161278680Y-77939294D02*
X161278680Y-77701199D01*
X161278680Y-77701199D02*
X161326300Y-77558342D01*
X161326300Y-77558342D02*
X161421538Y-77463104D01*
X161421538Y-77463104D02*
X161516776Y-77415485D01*
X161516776Y-77415485D02*
X161707252Y-77367866D01*
X161707252Y-77367866D02*
X161850109Y-77367866D01*
X161850109Y-77367866D02*
X162040585Y-77415485D01*
X162040585Y-77415485D02*
X162135823Y-77463104D01*
X162135823Y-77463104D02*
X162231061Y-77558342D01*
X162231061Y-77558342D02*
X162278680Y-77701199D01*
X162278680Y-77701199D02*
X162278680Y-77939294D01*
X161373919Y-76986913D02*
X161326300Y-76939294D01*
X161326300Y-76939294D02*
X161278680Y-76844056D01*
X161278680Y-76844056D02*
X161278680Y-76605961D01*
X161278680Y-76605961D02*
X161326300Y-76510723D01*
X161326300Y-76510723D02*
X161373919Y-76463104D01*
X161373919Y-76463104D02*
X161469157Y-76415485D01*
X161469157Y-76415485D02*
X161564395Y-76415485D01*
X161564395Y-76415485D02*
X161707252Y-76463104D01*
X161707252Y-76463104D02*
X162278680Y-77034532D01*
X162278680Y-77034532D02*
X162278680Y-76415485D01*
%TO.C,D1*%
X160288680Y-77939294D02*
X159288680Y-77939294D01*
X159288680Y-77939294D02*
X159288680Y-77701199D01*
X159288680Y-77701199D02*
X159336300Y-77558342D01*
X159336300Y-77558342D02*
X159431538Y-77463104D01*
X159431538Y-77463104D02*
X159526776Y-77415485D01*
X159526776Y-77415485D02*
X159717252Y-77367866D01*
X159717252Y-77367866D02*
X159860109Y-77367866D01*
X159860109Y-77367866D02*
X160050585Y-77415485D01*
X160050585Y-77415485D02*
X160145823Y-77463104D01*
X160145823Y-77463104D02*
X160241061Y-77558342D01*
X160241061Y-77558342D02*
X160288680Y-77701199D01*
X160288680Y-77701199D02*
X160288680Y-77939294D01*
X160288680Y-76415485D02*
X160288680Y-76986913D01*
X160288680Y-76701199D02*
X159288680Y-76701199D01*
X159288680Y-76701199D02*
X159431538Y-76796437D01*
X159431538Y-76796437D02*
X159526776Y-76891675D01*
X159526776Y-76891675D02*
X159574395Y-76986913D01*
%TO.C,J5*%
X159003680Y-95299533D02*
X159717966Y-95299533D01*
X159717966Y-95299533D02*
X159860823Y-95347152D01*
X159860823Y-95347152D02*
X159956061Y-95442390D01*
X159956061Y-95442390D02*
X160003680Y-95585247D01*
X160003680Y-95585247D02*
X160003680Y-95680485D01*
X159003680Y-94347152D02*
X159003680Y-94823342D01*
X159003680Y-94823342D02*
X159479871Y-94870961D01*
X159479871Y-94870961D02*
X159432252Y-94823342D01*
X159432252Y-94823342D02*
X159384633Y-94728104D01*
X159384633Y-94728104D02*
X159384633Y-94490009D01*
X159384633Y-94490009D02*
X159432252Y-94394771D01*
X159432252Y-94394771D02*
X159479871Y-94347152D01*
X159479871Y-94347152D02*
X159575109Y-94299533D01*
X159575109Y-94299533D02*
X159813204Y-94299533D01*
X159813204Y-94299533D02*
X159908442Y-94347152D01*
X159908442Y-94347152D02*
X159956061Y-94394771D01*
X159956061Y-94394771D02*
X160003680Y-94490009D01*
X160003680Y-94490009D02*
X160003680Y-94728104D01*
X160003680Y-94728104D02*
X159956061Y-94823342D01*
X159956061Y-94823342D02*
X159908442Y-94870961D01*
D11*
%TO.C,J1*%
X129210000Y-98790000D02*
X147050000Y-98790000D01*
X129210000Y-98790000D02*
X129210000Y-96130000D01*
X147050000Y-98790000D02*
X147050000Y-96130000D01*
X126610000Y-97460000D02*
X126610000Y-96130000D01*
X126610000Y-96130000D02*
X127940000Y-96130000D01*
X129210000Y-96130000D02*
X147050000Y-96130000D01*
%TO.C,J3*%
X152070000Y-98790000D02*
X164830000Y-98790000D01*
X152070000Y-98790000D02*
X152070000Y-96130000D01*
X164830000Y-98790000D02*
X164830000Y-96130000D01*
X149470000Y-97460000D02*
X149470000Y-96130000D01*
X149470000Y-96130000D02*
X150800000Y-96130000D01*
X152070000Y-96130000D02*
X164830000Y-96130000D01*
%TO.C,J2*%
X120066000Y-50530000D02*
X142986000Y-50530000D01*
X120066000Y-50530000D02*
X120066000Y-47870000D01*
X142986000Y-50530000D02*
X142986000Y-47870000D01*
X117466000Y-49200000D02*
X117466000Y-47870000D01*
X117466000Y-47870000D02*
X118796000Y-47870000D01*
X120066000Y-47870000D02*
X142986000Y-47870000D01*
%TO.C,J4*%
X146990000Y-50530000D02*
X164830000Y-50530000D01*
X146990000Y-50530000D02*
X146990000Y-47870000D01*
X164830000Y-50530000D02*
X164830000Y-47870000D01*
X144390000Y-49200000D02*
X144390000Y-47870000D01*
X144390000Y-47870000D02*
X145720000Y-47870000D01*
X146990000Y-47870000D02*
X164830000Y-47870000D01*
D12*
%TO.C,U2*%
X124511000Y-73330000D02*
X122606000Y-73330000D01*
X118669000Y-73330000D02*
X120574000Y-73330000D01*
X118669000Y-73330000D02*
X118669000Y-93650000D01*
X124511000Y-93650000D02*
X124511000Y-73330000D01*
X124511000Y-93650000D02*
X118669000Y-93650000D01*
X120574000Y-73330000D02*
G75*
G03*
X122606000Y-73330000I1016000J0D01*
G01*
D11*
%TO.C,J8*%
X162406300Y-82496200D02*
X167546300Y-82496200D01*
X162406300Y-82496200D02*
X162406300Y-81926200D01*
X167546300Y-82496200D02*
X167546300Y-81473730D01*
X161011300Y-81166200D02*
X161011300Y-79836200D01*
X167546300Y-80858670D02*
X167546300Y-79836200D01*
X162406300Y-80406200D02*
X162406300Y-79836200D01*
X161011300Y-79836200D02*
X161771300Y-79836200D01*
X162406300Y-79836200D02*
X167546300Y-79836200D01*
%TO.C,LED1*%
X138271300Y-71771200D02*
X140271300Y-71771200D01*
X120351300Y-71521200D02*
X170891300Y-71521200D01*
X120351300Y-71521200D02*
X120351300Y-52281200D01*
X170891300Y-71521200D02*
X170891300Y-52281200D01*
X170891300Y-52281200D02*
X120351300Y-52281200D01*
D13*
%TO.C,U5*%
X114620000Y-68490000D02*
X100620000Y-68490000D01*
X114620000Y-68490000D02*
X114620000Y-98490000D01*
X100620000Y-68490000D02*
X100620000Y-98490000D01*
X114620000Y-98490000D02*
X100620000Y-98490000D01*
D11*
%TO.C,J6*%
X143815000Y-75930000D02*
X146415000Y-75930000D01*
X143815000Y-75930000D02*
X143815000Y-75360000D01*
X146415000Y-75930000D02*
X146415000Y-74907530D01*
X142420000Y-74600000D02*
X142420000Y-73270000D01*
X146415000Y-74292470D02*
X146415000Y-73270000D01*
X143815000Y-73840000D02*
X143815000Y-73270000D01*
X142420000Y-73270000D02*
X143180000Y-73270000D01*
X143815000Y-73270000D02*
X146415000Y-73270000D01*
%TO.C,S2*%
X154310000Y-78770000D02*
X154310000Y-74630000D01*
X154610000Y-78770000D02*
X154310000Y-78770000D01*
X157450000Y-78770000D02*
X157150000Y-78770000D01*
X154310000Y-74630000D02*
X154610000Y-74630000D01*
X157150000Y-74630000D02*
X157450000Y-74630000D01*
X157450000Y-74630000D02*
X157450000Y-78770000D01*
%TO.C,VR1*%
X114331000Y-65270000D02*
X116150000Y-65270000D01*
X111869000Y-64734000D02*
X111869000Y-58530000D01*
X118610000Y-64734000D02*
X118610000Y-58530000D01*
X111869000Y-58530000D02*
X114000000Y-58530000D01*
X116480000Y-58530000D02*
X118610000Y-58530000D01*
D10*
%TO.C,U1*%
X100755000Y-54615000D02*
X100980000Y-54615000D01*
X100755000Y-54615000D02*
X100755000Y-48865000D01*
X100980000Y-54615000D02*
X100980000Y-56215000D01*
X109405000Y-54615000D02*
X109105000Y-54615000D01*
X109405000Y-54615000D02*
X109405000Y-48865000D01*
X100755000Y-48865000D02*
X101055000Y-48865000D01*
X109405000Y-48865000D02*
X109105000Y-48865000D01*
D11*
%TO.C,S1*%
X149230000Y-78770000D02*
X149230000Y-74630000D01*
X149530000Y-78770000D02*
X149230000Y-78770000D01*
X152370000Y-78770000D02*
X152070000Y-78770000D01*
X149230000Y-74630000D02*
X149530000Y-74630000D01*
X152070000Y-74630000D02*
X152370000Y-74630000D01*
X152370000Y-74630000D02*
X152370000Y-78770000D01*
D13*
%TO.C,U6*%
X129450000Y-80300000D02*
X129450000Y-94300000D01*
X129450000Y-80300000D02*
X159450000Y-80300000D01*
X129450000Y-94300000D02*
X159450000Y-94300000D01*
X159450000Y-80300000D02*
X159450000Y-94300000D01*
D11*
%TO.C,J10*%
X136195000Y-75930000D02*
X138795000Y-75930000D01*
X136195000Y-75930000D02*
X136195000Y-75360000D01*
X138795000Y-75930000D02*
X138795000Y-74907530D01*
X134800000Y-74600000D02*
X134800000Y-73270000D01*
X138795000Y-74292470D02*
X138795000Y-73270000D01*
X136195000Y-73840000D02*
X136195000Y-73270000D01*
X134800000Y-73270000D02*
X135560000Y-73270000D01*
X136195000Y-73270000D02*
X138795000Y-73270000D01*
%TO.C,J7*%
X162406300Y-91696200D02*
X166276300Y-91696200D01*
X162406300Y-91696200D02*
X162406300Y-91126200D01*
X166276300Y-91696200D02*
X166276300Y-90673730D01*
X161011300Y-90366200D02*
X161011300Y-89036200D01*
X166276300Y-90058670D02*
X166276300Y-89036200D01*
X162406300Y-89606200D02*
X162406300Y-89036200D01*
X161011300Y-89036200D02*
X161771300Y-89036200D01*
X162406300Y-89036200D02*
X166276300Y-89036200D01*
%TO.C,J9*%
X162406300Y-87096200D02*
X166276300Y-87096200D01*
X162406300Y-87096200D02*
X162406300Y-86526200D01*
X166276300Y-87096200D02*
X166276300Y-86073730D01*
X161011300Y-85766200D02*
X161011300Y-84436200D01*
X166276300Y-85458670D02*
X166276300Y-84436200D01*
X162406300Y-85006200D02*
X162406300Y-84436200D01*
X161011300Y-84436200D02*
X161771300Y-84436200D01*
X162406300Y-84436200D02*
X166276300Y-84436200D01*
D14*
%TO.C,D2*%
X163131300Y-78291200D02*
G75*
G03*
X163131300Y-78291200I-50000J0D01*
G01*
%TO.C,D1*%
X161141300Y-78291200D02*
G75*
G03*
X161141300Y-78291200I-50000J0D01*
G01*
D11*
%TO.C,J5*%
X162406300Y-96296200D02*
X166276300Y-96296200D01*
X162406300Y-96296200D02*
X162406300Y-95726200D01*
X166276300Y-96296200D02*
X166276300Y-95273730D01*
X161011300Y-94966200D02*
X161011300Y-93636200D01*
X166276300Y-94658670D02*
X166276300Y-93636200D01*
X162406300Y-94206200D02*
X162406300Y-93636200D01*
X161011300Y-93636200D02*
X161771300Y-93636200D01*
X162406300Y-93636200D02*
X166276300Y-93636200D01*
%TD*%
M02*
