%TF.GenerationSoftware,KiCad,Pcbnew,(7.0.0)*%
%TF.CreationDate,2023-05-09T23:11:13-07:00*%
%TF.ProjectId,CPE_301_KiCAD_Final,4350455f-3330-4315-9f4b-694341445f46,rev?*%
%TF.SameCoordinates,Original*%
%TF.FileFunction,Copper,L2,Bot*%
%TF.FilePolarity,Positive*%
%FSLAX46Y46*%
G04 Gerber Fmt 4.6, Leading zero omitted, Abs format (unit mm)*
G04 Created by KiCad (PCBNEW (7.0.0)) date 2023-05-09 23:11:13*
%MOMM*%
%LPD*%
G01*
G04 APERTURE LIST*
%TA.AperFunction,ComponentPad*%
%ADD10R,1.700000X1.700000*%
%TD*%
%TA.AperFunction,ComponentPad*%
%ADD11O,1.700000X1.700000*%
%TD*%
%TA.AperFunction,ComponentPad*%
%ADD12O,2.641600X1.320800*%
%TD*%
%TA.AperFunction,ComponentPad*%
%ADD13R,1.000000X1.000000*%
%TD*%
%TA.AperFunction,ComponentPad*%
%ADD14O,1.000000X1.000000*%
%TD*%
%TA.AperFunction,ComponentPad*%
%ADD15R,1.500000X1.500000*%
%TD*%
%TA.AperFunction,ComponentPad*%
%ADD16C,1.500000*%
%TD*%
%TA.AperFunction,ComponentPad*%
%ADD17C,1.778000*%
%TD*%
%TA.AperFunction,ViaPad*%
%ADD18C,0.600000*%
%TD*%
%TA.AperFunction,Conductor*%
%ADD19C,0.250000*%
%TD*%
G04 APERTURE END LIST*
D10*
%TO.P,J1,1,Pin_1*%
%TO.N,unconnected-(J1-Pin_1-Pad1)*%
X127939999Y-97459999D03*
D11*
%TO.P,J1,2,Pin_2*%
%TO.N,/IOREF*%
X130479999Y-97459999D03*
%TO.P,J1,3,Pin_3*%
%TO.N,/~{RESET}*%
X133019999Y-97459999D03*
%TO.P,J1,4,Pin_4*%
%TO.N,+3V3*%
X135559999Y-97459999D03*
%TO.P,J1,5,Pin_5*%
%TO.N,+5V*%
X138099999Y-97459999D03*
%TO.P,J1,6,Pin_6*%
%TO.N,GND*%
X140639999Y-97459999D03*
%TO.P,J1,7,Pin_7*%
X143179999Y-97459999D03*
%TO.P,J1,8,Pin_8*%
%TO.N,VCC*%
X145719999Y-97459999D03*
%TD*%
D10*
%TO.P,J3,1,Pin_1*%
%TO.N,/A0*%
X150799999Y-97459999D03*
D11*
%TO.P,J3,2,Pin_2*%
%TO.N,/A1*%
X153339999Y-97459999D03*
%TO.P,J3,3,Pin_3*%
%TO.N,/A2*%
X155879999Y-97459999D03*
%TO.P,J3,4,Pin_4*%
%TO.N,/A3*%
X158419999Y-97459999D03*
%TO.P,J3,5,Pin_5*%
%TO.N,/SDA{slash}A4*%
X160959999Y-97459999D03*
%TO.P,J3,6,Pin_6*%
%TO.N,/SCL{slash}A5*%
X163499999Y-97459999D03*
%TD*%
D10*
%TO.P,J2,1,Pin_1*%
%TO.N,/SCL{slash}A5*%
X118795999Y-49199999D03*
D11*
%TO.P,J2,2,Pin_2*%
%TO.N,/SDA{slash}A4*%
X121335999Y-49199999D03*
%TO.P,J2,3,Pin_3*%
%TO.N,/AREF*%
X123875999Y-49199999D03*
%TO.P,J2,4,Pin_4*%
%TO.N,GND*%
X126415999Y-49199999D03*
%TO.P,J2,5,Pin_5*%
%TO.N,/13*%
X128955999Y-49199999D03*
%TO.P,J2,6,Pin_6*%
%TO.N,/12*%
X131495999Y-49199999D03*
%TO.P,J2,7,Pin_7*%
%TO.N,/\u002A11*%
X134035999Y-49199999D03*
%TO.P,J2,8,Pin_8*%
%TO.N,/\u002A10*%
X136575999Y-49199999D03*
%TO.P,J2,9,Pin_9*%
%TO.N,/\u002A9*%
X139115999Y-49199999D03*
%TO.P,J2,10,Pin_10*%
%TO.N,/8*%
X141655999Y-49199999D03*
%TD*%
D10*
%TO.P,J4,1,Pin_1*%
%TO.N,/7*%
X145719999Y-49199999D03*
D11*
%TO.P,J4,2,Pin_2*%
%TO.N,/\u002A6*%
X148259999Y-49199999D03*
%TO.P,J4,3,Pin_3*%
%TO.N,/\u002A5*%
X150799999Y-49199999D03*
%TO.P,J4,4,Pin_4*%
%TO.N,/4*%
X153339999Y-49199999D03*
%TO.P,J4,5,Pin_5*%
%TO.N,/\u002A3*%
X155879999Y-49199999D03*
%TO.P,J4,6,Pin_6*%
%TO.N,/2*%
X158419999Y-49199999D03*
%TO.P,J4,7,Pin_7*%
%TO.N,/TX{slash}1*%
X160959999Y-49199999D03*
%TO.P,J4,8,Pin_8*%
%TO.N,/RX{slash}0*%
X163499999Y-49199999D03*
%TD*%
D12*
%TO.P,U2,1,I1*%
%TO.N,/A1*%
X117779999Y-74599999D03*
%TO.P,U2,2,I2*%
%TO.N,/A2*%
X117779999Y-77139999D03*
%TO.P,U2,3,I3*%
%TO.N,/A3*%
X117779999Y-79679999D03*
%TO.P,U2,4,I4*%
%TO.N,/SDA{slash}A4*%
X117779999Y-82219999D03*
%TO.P,U2,5,I5*%
%TO.N,unconnected-(U2-I5-Pad5)*%
X117779999Y-84759999D03*
%TO.P,U2,6,I6*%
%TO.N,unconnected-(U2-I6-Pad6)*%
X117779999Y-87299999D03*
%TO.P,U2,7,I7*%
%TO.N,unconnected-(U2-I7-Pad7)*%
X117779999Y-89839999D03*
%TO.P,U2,8,GND*%
%TO.N,GND*%
X117779999Y-92379999D03*
%TO.P,U2,9,COM*%
%TO.N,+5V*%
X125399999Y-92379999D03*
%TO.P,U2,10,O7*%
%TO.N,unconnected-(U2-O7-Pad10)*%
X125399999Y-89839999D03*
%TO.P,U2,11,O6*%
%TO.N,unconnected-(U2-O6-Pad11)*%
X125399999Y-87299999D03*
%TO.P,U2,12,O5*%
%TO.N,Net-(J8-Pin_5)*%
X125399999Y-84759999D03*
%TO.P,U2,13,O4*%
%TO.N,Net-(J8-Pin_4)*%
X125399999Y-82219999D03*
%TO.P,U2,14,O3*%
%TO.N,Net-(J8-Pin_3)*%
X125399999Y-79679999D03*
%TO.P,U2,15,O2*%
%TO.N,Net-(J8-Pin_2)*%
X125399999Y-77139999D03*
%TO.P,U2,16,O1*%
%TO.N,Net-(J8-Pin_1)*%
X125399999Y-74599999D03*
%TD*%
D13*
%TO.P,J8,1,Pin_1*%
%TO.N,Net-(J8-Pin_1)*%
X161771299Y-81166199D03*
D14*
%TO.P,J8,2,Pin_2*%
%TO.N,Net-(J8-Pin_2)*%
X163041299Y-81166199D03*
%TO.P,J8,3,Pin_3*%
%TO.N,Net-(J8-Pin_3)*%
X164311299Y-81166199D03*
%TO.P,J8,4,Pin_4*%
%TO.N,Net-(J8-Pin_4)*%
X165581299Y-81166199D03*
%TO.P,J8,5,Pin_5*%
%TO.N,Net-(J8-Pin_5)*%
X166851299Y-81166199D03*
%TD*%
D15*
%TO.P,LED1,1,E*%
%TO.N,Net-(LED1-E)*%
X139271299Y-69521199D03*
D16*
%TO.P,LED1,2,D*%
%TO.N,Net-(LED1-D)*%
X141811300Y-69521200D03*
%TO.P,LED1,3,DP*%
%TO.N,Net-(LED1-DP)*%
X144351300Y-69521200D03*
%TO.P,LED1,4,C*%
%TO.N,Net-(LED1-C)*%
X146891300Y-69521200D03*
%TO.P,LED1,5,G*%
%TO.N,Net-(LED1-G)*%
X149431300Y-69521200D03*
%TO.P,LED1,6,DIG4*%
%TO.N,Net-(LED1-DIG4)*%
X151971300Y-69521200D03*
%TO.P,LED1,7,B*%
%TO.N,Net-(LED1-B)*%
X151971300Y-54281200D03*
%TO.P,LED1,8,DIG3*%
%TO.N,Net-(LED1-DIG3)*%
X149431300Y-54281200D03*
%TO.P,LED1,9,DIG2*%
%TO.N,Net-(LED1-DIG2)*%
X146891300Y-54281200D03*
%TO.P,LED1,10,F*%
%TO.N,Net-(LED1-F)*%
X144351300Y-54281200D03*
%TO.P,LED1,11,A*%
%TO.N,Net-(LED1-A)*%
X141811300Y-54281200D03*
%TO.P,LED1,12,DIG1*%
%TO.N,Net-(LED1-DIG1)*%
X139271300Y-54281200D03*
%TD*%
D17*
%TO.P,U5,1,QB*%
%TO.N,Net-(LED1-B)*%
X102540000Y-77140000D03*
%TO.P,U5,2,QC*%
%TO.N,Net-(LED1-C)*%
X102540000Y-79680000D03*
%TO.P,U5,3,QD*%
%TO.N,Net-(LED1-D)*%
X102540000Y-82220000D03*
%TO.P,U5,4,QE*%
%TO.N,Net-(LED1-E)*%
X102540000Y-84760000D03*
%TO.P,U5,5,QF*%
%TO.N,Net-(LED1-F)*%
X102540000Y-87300000D03*
%TO.P,U5,6,QG*%
%TO.N,Net-(LED1-G)*%
X102540000Y-89840000D03*
%TO.P,U5,7,QH*%
%TO.N,Net-(LED1-DP)*%
X112700000Y-89840000D03*
%TO.P,U5,8,GND*%
%TO.N,GND*%
X112700000Y-87300000D03*
%TO.P,U5,9,SQH*%
%TO.N,/\u002A9*%
X112700000Y-84760000D03*
%TO.P,U5,10,RESET*%
%TO.N,+5V*%
X112700000Y-82220000D03*
%TO.P,U5,11,SHIFT_CLK*%
%TO.N,/7*%
X112700000Y-79680000D03*
%TO.P,U5,12,LATCH_CLK*%
%TO.N,/4*%
X112700000Y-77140000D03*
%TD*%
D13*
%TO.P,J6,1,Pin_1*%
%TO.N,GND*%
X143179999Y-74599999D03*
D14*
%TO.P,J6,2,Pin_2*%
%TO.N,+5V*%
X144449999Y-74599999D03*
%TO.P,J6,3,Pin_3*%
%TO.N,/13*%
X145719999Y-74599999D03*
%TD*%
D17*
%TO.P,U6,1,QB*%
%TO.N,Net-(LED1-DIG2)*%
X138100000Y-92380000D03*
%TO.P,U6,2,QC*%
%TO.N,Net-(LED1-DIG3)*%
X140640000Y-92380000D03*
%TO.P,U6,3,QD*%
%TO.N,Net-(LED1-DIG4)*%
X143180000Y-92380000D03*
%TO.P,U6,4,QE*%
%TO.N,unconnected-(U6-QE-Pad4)*%
X145720000Y-92380000D03*
%TO.P,U6,5,QF*%
%TO.N,unconnected-(U6-QF-Pad5)*%
X148260000Y-92380000D03*
%TO.P,U6,6,QG*%
%TO.N,unconnected-(U6-QG-Pad6)*%
X150800000Y-92380000D03*
%TO.P,U6,7,QH*%
%TO.N,unconnected-(U6-QH-Pad7)*%
X150800000Y-82220000D03*
%TO.P,U6,8,GND*%
%TO.N,GND*%
X148260000Y-82220000D03*
%TO.P,U6,9,SQH*%
%TO.N,Net-(U5-A)*%
X145720000Y-82220000D03*
%TO.P,U6,10,RESET*%
%TO.N,+5V*%
X143180000Y-82220000D03*
%TO.P,U6,11,SHIFT_CLK*%
%TO.N,/7*%
X140640000Y-82220000D03*
%TO.P,U6,12,LATCH_CLK*%
%TO.N,/4*%
X138100000Y-82220000D03*
%TD*%
D13*
%TO.P,J10,1,Pin_1*%
%TO.N,Net-(J10-Pin_1)*%
X135559999Y-74599999D03*
D14*
%TO.P,J10,2,Pin_2*%
%TO.N,Net-(J10-Pin_2)*%
X136829999Y-74599999D03*
%TO.P,J10,3,Pin_3*%
%TO.N,Net-(J10-Pin_3)*%
X138099999Y-74599999D03*
%TD*%
D13*
%TO.P,J7,1,Pin_1*%
%TO.N,+5V*%
X161771299Y-90366199D03*
D14*
%TO.P,J7,2,Pin_2*%
%TO.N,/SDA{slash}A4*%
X163041299Y-90366199D03*
%TO.P,J7,3,Pin_3*%
%TO.N,/SCL{slash}A5*%
X164311299Y-90366199D03*
%TO.P,J7,4,Pin_4*%
%TO.N,GND*%
X165581299Y-90366199D03*
%TD*%
D13*
%TO.P,J9,1,Pin_1*%
%TO.N,Net-(J9-Pin_1)*%
X161771299Y-85766199D03*
D14*
%TO.P,J9,2,Pin_2*%
%TO.N,Net-(J9-Pin_2)*%
X163041299Y-85766199D03*
%TO.P,J9,3,Pin_3*%
%TO.N,Net-(J9-Pin_3)*%
X164311299Y-85766199D03*
%TO.P,J9,4,Pin_4*%
%TO.N,Net-(J9-Pin_4)*%
X165581299Y-85766199D03*
%TD*%
D13*
%TO.P,J5,1,Pin_1*%
%TO.N,+5V*%
X161771299Y-94966199D03*
D14*
%TO.P,J5,2,Pin_2*%
%TO.N,/RX{slash}0*%
X163041299Y-94966199D03*
%TO.P,J5,3,Pin_3*%
%TO.N,/8*%
X164311299Y-94966199D03*
%TO.P,J5,4,Pin_4*%
%TO.N,GND*%
X165581299Y-94966199D03*
%TD*%
D18*
%TO.N,GND*%
X111035000Y-66225000D03*
X109220000Y-51702000D03*
%TO.N,+5V*%
X115877000Y-66271100D03*
X104125000Y-49563000D03*
%TO.N,/A0*%
X120192000Y-59944200D03*
%TO.N,/A2*%
X136216000Y-92822600D03*
%TO.N,/13*%
X138670000Y-71619800D03*
%TO.N,/\u002A11*%
X134805000Y-54610100D03*
%TO.N,/\u002A9*%
X107405000Y-50926900D03*
%TO.N,/\u002A6*%
X162693000Y-75916000D03*
%TO.N,/RX{slash}0*%
X157793000Y-51467100D03*
%TO.N,Net-(J9-Pin_1)*%
X155634000Y-55644800D03*
%TO.N,Net-(J9-Pin_2)*%
X139600000Y-86218200D03*
X121567000Y-67358000D03*
%TO.N,Net-(J9-Pin_3)*%
X157507000Y-65630500D03*
%TO.N,Net-(J9-Pin_4)*%
X151331000Y-53031100D03*
%TO.N,Net-(J10-Pin_2)*%
X110807000Y-47696300D03*
%TO.N,Net-(J10-Pin_3)*%
X121677000Y-50964400D03*
%TD*%
D19*
%TO.N,GND*%
X111035000Y-85635300D02*
X111035000Y-66225000D01*
X116134000Y-92380000D02*
X117780000Y-92380000D01*
X116134000Y-90734100D02*
X116134000Y-92380000D01*
X143180000Y-97460000D02*
X143180000Y-96872400D01*
X167985000Y-93388000D02*
X167985000Y-91582200D01*
X166406000Y-94966200D02*
X167985000Y-93388000D01*
X112700000Y-87300000D02*
X116134000Y-90734100D01*
X112700000Y-87300000D02*
X111035000Y-85635300D01*
X165581300Y-90366200D02*
X165581000Y-90366200D01*
X143180000Y-96872400D02*
X143180000Y-96284900D01*
X165581300Y-94966200D02*
X166406000Y-94966200D01*
X142403000Y-96872400D02*
X143180000Y-96872400D01*
X141927000Y-91915900D02*
X148260000Y-85583000D01*
X148260000Y-85583000D02*
X148260000Y-82220000D01*
X141927000Y-95032000D02*
X141927000Y-91915900D01*
X141815000Y-97460000D02*
X142403000Y-96872400D01*
X140640000Y-97460000D02*
X141815000Y-97460000D01*
X111035000Y-53516800D02*
X109220000Y-51702000D01*
X143180000Y-96284900D02*
X141927000Y-95032000D01*
X166769000Y-90366200D02*
X165581300Y-90366200D01*
X165581000Y-94966200D02*
X165581300Y-94966200D01*
X111035000Y-66225000D02*
X111035000Y-53516800D01*
X167985000Y-91582200D02*
X166769000Y-90366200D01*
%TO.N,+5V*%
X161771000Y-91516200D02*
X161771300Y-91515900D01*
X115877000Y-56835800D02*
X108604000Y-49563000D01*
X112700000Y-82220000D02*
X112919000Y-82001000D01*
X161771300Y-93241500D02*
X161771300Y-94966200D01*
X161771300Y-91515900D02*
X161771300Y-90366200D01*
X118573000Y-86026700D02*
X123754000Y-91207900D01*
X143180000Y-86555000D02*
X143180000Y-82220000D01*
X143180000Y-76695100D02*
X143180000Y-82220000D01*
X114752000Y-67396200D02*
X114752000Y-80167900D01*
X108604000Y-49563000D02*
X104125000Y-49563000D01*
X123754000Y-92380000D02*
X125400000Y-92380000D01*
X144450000Y-74600000D02*
X144450000Y-75425100D01*
X112919000Y-82001000D02*
X116945000Y-86026700D01*
X161771000Y-90366200D02*
X161771000Y-91516200D01*
X114752000Y-80167900D02*
X112919000Y-82001000D01*
X161771000Y-93241200D02*
X161771300Y-93241500D01*
X161771000Y-93241200D02*
X161771000Y-94966200D01*
X138100000Y-96284900D02*
X139370000Y-95014900D01*
X116945000Y-86026700D02*
X118573000Y-86026700D01*
X139370000Y-95014900D02*
X139370000Y-90365000D01*
X123754000Y-91207900D02*
X123754000Y-92380000D01*
X115877000Y-66271100D02*
X114752000Y-67396200D01*
X138100000Y-97460000D02*
X138100000Y-96284900D01*
X161771000Y-91516200D02*
X161771000Y-93241200D01*
X144450000Y-75425100D02*
X143180000Y-76695100D01*
X115877000Y-66271100D02*
X115877000Y-56835800D01*
X139370000Y-90365000D02*
X143180000Y-86555000D01*
%TO.N,/A0*%
X136841000Y-97891600D02*
X136841000Y-91599500D01*
X137584000Y-98635100D02*
X136841000Y-97891600D01*
X136841000Y-91599500D02*
X126191000Y-80950000D01*
X124599000Y-80950000D02*
X120192000Y-76543500D01*
X148450000Y-98635100D02*
X137584000Y-98635100D01*
X149625000Y-97460000D02*
X148450000Y-98635100D01*
X150800000Y-97460000D02*
X149625000Y-97460000D01*
X120192000Y-76543500D02*
X120192000Y-59944200D01*
X126191000Y-80950000D02*
X124599000Y-80950000D01*
%TO.N,/A2*%
X116134000Y-77140000D02*
X116134000Y-82691600D01*
X116134000Y-82691600D02*
X116708000Y-83265900D01*
X126659000Y-83265900D02*
X136216000Y-92822600D01*
X117780000Y-77140000D02*
X116134000Y-77140000D01*
X116708000Y-83265900D02*
X126659000Y-83265900D01*
%TO.N,/SDA{slash}A4*%
X119426000Y-52285200D02*
X119426000Y-82220000D01*
X121336000Y-50375100D02*
X119426000Y-52285200D01*
X121336000Y-49200000D02*
X121336000Y-50375100D01*
X119426000Y-82220000D02*
X117780000Y-82220000D01*
%TO.N,/SCL{slash}A5*%
X134290000Y-96612100D02*
X134290000Y-97862100D01*
X118796000Y-68779400D02*
X115652000Y-71923200D01*
X118796000Y-49200000D02*
X118796000Y-68779400D01*
X124522000Y-88570000D02*
X126248000Y-88570000D01*
X161025000Y-99127000D02*
X162325000Y-97827200D01*
X116538000Y-83745200D02*
X119698000Y-83745200D01*
X126248000Y-88570000D02*
X134290000Y-96612100D01*
X162325000Y-97460000D02*
X163500000Y-97460000D01*
X119698000Y-83745200D02*
X124522000Y-88570000D01*
X162325000Y-97827200D02*
X162325000Y-97460000D01*
X135555000Y-99127000D02*
X161025000Y-99127000D01*
X134290000Y-97862100D02*
X135555000Y-99127000D01*
X115652000Y-71923200D02*
X115652000Y-82859100D01*
X115652000Y-82859100D02*
X116538000Y-83745200D01*
%TO.N,/13*%
X128956000Y-49200000D02*
X128956000Y-61905800D01*
X128956000Y-61905800D02*
X138670000Y-71619800D01*
%TO.N,/8*%
X154342000Y-59866100D02*
X154342000Y-89660900D01*
X150604000Y-56128300D02*
X154342000Y-59866100D01*
X164311300Y-95378400D02*
X164311300Y-94966200D01*
X141656000Y-49200000D02*
X142831000Y-49200000D01*
X150604000Y-53812700D02*
X150604000Y-56128300D01*
X144006000Y-48024800D02*
X146707000Y-48024800D01*
X146895000Y-48213000D02*
X146895000Y-50103900D01*
X142831000Y-49200000D02*
X144006000Y-48024800D01*
X146707000Y-48024800D02*
X146895000Y-48213000D01*
X164311000Y-95378700D02*
X164311000Y-94966200D01*
X160966000Y-96284800D02*
X163818000Y-96284800D01*
X164311000Y-95791300D02*
X164311000Y-95378700D01*
X164311000Y-95378700D02*
X164311300Y-95378400D01*
X163818000Y-96284800D02*
X164311000Y-95791300D01*
X154342000Y-89660900D02*
X160966000Y-96284800D01*
X146895000Y-50103900D02*
X150604000Y-53812700D01*
%TO.N,/7*%
X143081000Y-53013800D02*
X143081000Y-55708500D01*
X145720000Y-49200000D02*
X145720000Y-50375100D01*
X140640000Y-58149800D02*
X140640000Y-82220000D01*
X145720000Y-50375100D02*
X143081000Y-53013800D01*
X143081000Y-55708500D02*
X140640000Y-58149800D01*
%TO.N,/\u002A11*%
X134036000Y-53841100D02*
X134036000Y-49200000D01*
X134805000Y-54610100D02*
X134036000Y-53841100D01*
%TO.N,/\u002A9*%
X105721000Y-47059800D02*
X103442000Y-49339200D01*
X111486000Y-83545800D02*
X111486000Y-69270300D01*
X137941000Y-48832800D02*
X136168000Y-47059800D01*
X111662000Y-69094300D02*
X111662000Y-53257100D01*
X103442000Y-49869800D02*
X104499000Y-50926900D01*
X111662000Y-53257100D02*
X109332000Y-50926900D01*
X111486000Y-69270300D02*
X111662000Y-69094300D01*
X139116000Y-49200000D02*
X137941000Y-49200000D01*
X136168000Y-47059800D02*
X105721000Y-47059800D01*
X109332000Y-50926900D02*
X107405000Y-50926900D01*
X103442000Y-49339200D02*
X103442000Y-49869800D01*
X137941000Y-49200000D02*
X137941000Y-48832800D01*
X112700000Y-84760000D02*
X111486000Y-83545800D01*
X104499000Y-50926900D02*
X107405000Y-50926900D01*
%TO.N,/4*%
X141627000Y-47558200D02*
X150888000Y-47558200D01*
X139331000Y-80988600D02*
X139331000Y-71368800D01*
X152165000Y-48834800D02*
X152165000Y-49200000D01*
X140386000Y-50525400D02*
X140386000Y-48798800D01*
X138100000Y-82220000D02*
X139331000Y-80988600D01*
X152165000Y-49200000D02*
X153340000Y-49200000D01*
X138186000Y-70467400D02*
X138186000Y-52725900D01*
X138186000Y-52725900D02*
X140386000Y-50525400D01*
X150888000Y-47558200D02*
X152165000Y-48834800D01*
X138957000Y-70994700D02*
X138713000Y-70994700D01*
X140386000Y-48798800D02*
X141627000Y-47558200D01*
X138713000Y-70994700D02*
X138186000Y-70467400D01*
X139331000Y-71368800D02*
X138957000Y-70994700D01*
%TO.N,/\u002A6*%
X162693000Y-61178500D02*
X152776000Y-51260900D01*
X151131000Y-51260900D02*
X149435000Y-49565300D01*
X149435000Y-49200000D02*
X148260000Y-49200000D01*
X149435000Y-49565300D02*
X149435000Y-49200000D01*
X162693000Y-75916000D02*
X162693000Y-61178500D01*
X152776000Y-51260900D02*
X151131000Y-51260900D01*
%TO.N,/RX{slash}0*%
X163041000Y-95791300D02*
X161124000Y-95791300D01*
X162577000Y-88066200D02*
X164531000Y-88066200D01*
X163041000Y-95378700D02*
X163041300Y-95378400D01*
X164531000Y-88066200D02*
X167718000Y-84879700D01*
X163500000Y-51467100D02*
X163500000Y-49200000D01*
X163041000Y-95378700D02*
X163041000Y-95791300D01*
X163500000Y-51467100D02*
X157793000Y-51467100D01*
X167718000Y-84879700D02*
X167718000Y-77949400D01*
X163500000Y-73731700D02*
X163500000Y-51467100D01*
X161124000Y-95791300D02*
X160946000Y-95613300D01*
X167718000Y-77949400D02*
X163500000Y-73731700D01*
X163041000Y-94966200D02*
X163041000Y-95378700D01*
X160946000Y-89697400D02*
X162577000Y-88066200D01*
X160946000Y-95613300D02*
X160946000Y-89697400D01*
X163041300Y-95378400D02*
X163041300Y-94966200D01*
%TO.N,Net-(J9-Pin_1)*%
X161771000Y-85766200D02*
X161771000Y-85353600D01*
X161771300Y-85353900D02*
X161771300Y-85766200D01*
X161771000Y-85353600D02*
X161771000Y-84941100D01*
X155634000Y-78803500D02*
X155634000Y-55644800D01*
X161771000Y-85353600D02*
X161771300Y-85353900D01*
X161771000Y-84941100D02*
X155634000Y-78803500D01*
%TO.N,Net-(J9-Pin_2)*%
X139600000Y-86218200D02*
X121567000Y-68184900D01*
X121567000Y-68184900D02*
X121567000Y-67358000D01*
%TO.N,Net-(J9-Pin_3)*%
X157507000Y-79018000D02*
X157507000Y-65630500D01*
X164311000Y-85766200D02*
X164256000Y-85766200D01*
X164311000Y-85766200D02*
X164311300Y-85766200D01*
X164256000Y-85766200D02*
X157507000Y-79018000D01*
%TO.N,Net-(J9-Pin_4)*%
X160946000Y-60067800D02*
X153909000Y-53031100D01*
X165581000Y-85766200D02*
X165581000Y-85353600D01*
X165581300Y-85353900D02*
X165581300Y-85766200D01*
X165581000Y-85353600D02*
X165581000Y-84941100D01*
X164067000Y-84941100D02*
X160946000Y-81820100D01*
X153909000Y-53031100D02*
X151331000Y-53031100D01*
X165581000Y-84941100D02*
X164067000Y-84941100D01*
X165581000Y-85353600D02*
X165581300Y-85353900D01*
X160946000Y-81820100D02*
X160946000Y-60067800D01*
%TO.N,Net-(J10-Pin_2)*%
X117809000Y-47974200D02*
X117552000Y-48231000D01*
X125146000Y-59101000D02*
X125146000Y-48772500D01*
X125146000Y-48772500D02*
X124348000Y-47974200D01*
X114265000Y-51154000D02*
X110807000Y-47696300D01*
X136830000Y-74600000D02*
X136830000Y-70785100D01*
X124348000Y-47974200D02*
X117809000Y-47974200D01*
X117552000Y-49674800D02*
X116073000Y-51154000D01*
X136830000Y-70785100D02*
X125146000Y-59101000D01*
X116073000Y-51154000D02*
X114265000Y-51154000D01*
X117552000Y-48231000D02*
X117552000Y-49674800D01*
%TO.N,Net-(J10-Pin_3)*%
X137220000Y-75479700D02*
X138100000Y-74600000D01*
X121677000Y-50964400D02*
X121677000Y-62197400D01*
X121677000Y-62197400D02*
X134959000Y-75479700D01*
X134959000Y-75479700D02*
X137220000Y-75479700D01*
%TO.N,Net-(LED1-DIG4)*%
X151971300Y-69521200D02*
X151971000Y-69521200D01*
X143180000Y-92380000D02*
X149474000Y-86085800D01*
X149474000Y-72018300D02*
X151971000Y-69521200D01*
X149474000Y-86085800D02*
X149474000Y-72018300D01*
%TO.N,Net-(LED1-DIG3)*%
X146934000Y-76598100D02*
X148161000Y-75371000D01*
X148796300Y-54916200D02*
X149431300Y-54281200D01*
X148796000Y-54916200D02*
X149431000Y-54281200D01*
X148796000Y-54916200D02*
X148796300Y-54916200D01*
X146934000Y-86085800D02*
X146934000Y-76598100D01*
X148161000Y-55551200D02*
X148796000Y-54916200D01*
X148161000Y-75371000D02*
X148161000Y-55551200D01*
X140640000Y-92380000D02*
X146934000Y-86085800D01*
%TO.N,Net-(LED1-DIG2)*%
X146046500Y-55126000D02*
X146891300Y-54281200D01*
X138100000Y-88602800D02*
X141910000Y-84792800D01*
X141910000Y-84792800D02*
X141910000Y-72913100D01*
X143081000Y-71741800D02*
X143081000Y-58091200D01*
X138100000Y-92380000D02*
X138100000Y-88602800D01*
X146046200Y-55126000D02*
X146891000Y-54281200D01*
X143081000Y-58091200D02*
X146046200Y-55126000D01*
X146046200Y-55126000D02*
X146046500Y-55126000D01*
X141910000Y-72913100D02*
X143081000Y-71741800D01*
%TD*%
M02*
